<?xml version="1.0" encoding="UTF-8" standalone="no"?>
<svg xmlns:dc="http://purl.org/dc/elements/1.1/" xmlns:cc="http://creativecommons.org/ns#" xmlns:rdf="http://www.w3.org/1999/02/22-rdf-syntax-ns#"
    xmlns="http://www.w3.org/2000/svg" xmlns:sodipodi="http://sodipodi.sourceforge.net/DTD/sodipodi-0.dtd"
    xmlns:inkscape="http://www.inkscape.org/namespaces/inkscape" width="24" height="24" viewBox="0 0 24 24"
    version="1.1" id="svg889" sodipodi:docname="QuickLaunch.svg" inkscape:version="0.92.4 (5da689c313, 2019-01-14)">
  <metadata
     id="metadata895">
    <rdf:RDF>
      <cc:Work
         rdf:about="">
        <dc:format>image/svg+xml</dc:format>
        <dc:type
           rdf:resource="http://purl.org/dc/dcmitype/StillImage" />
      </cc:Work>
    </rdf:RDF>
  </metadata>
  <defs
     id="defs893" />
  <sodipodi:namedview
     pagecolor="#ffffff"
     bordercolor="#666666"
     borderopacity="1"
     objecttolerance="10"
     gridtolerance="10"
     guidetolerance="10"
     inkscape:pageopacity="0"
     inkscape:pageshadow="2"
     inkscape:window-width="1600"
     inkscape:window-height="847"
     id="namedview891"
     showgrid="true"
     inkscape:zoom="27.812867"
     inkscape:cx="8.4891735"
     inkscape:cy="11.199636"
     inkscape:window-x="-8"
     inkscape:window-y="-8"
     inkscape:window-maximized="1"
     inkscape:current-layer="svg889"
     showguides="true">
    <inkscape:grid
       type="xygrid"
       id="grid5765" />
  </sodipodi:namedview>
  <path
     fill="none"
     d="M0 0h24v24H0z"
     id="path885" />
  <path
     d="M20.38 8.57l-1.23 1.85a8 8 0 0 1-.22 7.58H5.07A8 8 0 0 1 15.58 6.85l1.85-1.23A10 10 0 0 0 3.35 19a2 2 0 0 0 1.72 1h13.85a2 2 0 0 0 1.74-1 10 10 0 0 0-.27-10.44zm-9.79 6.84a2 2 0 0 0 2.83 0l5.66-8.49-8.49 5.66a2 2 0 0 0 0 2.83z"
     id="path887"
     style="fill:#ffffff;fill-opacity:1;stroke:#0c0c0c;stroke-opacity:1;stroke-width:0.03779528;stroke-miterlimit:4;stroke-dasharray:none" />
  <path
     inkscape:connector-curvature="0"
     d="m 6.0476292,10 v 3.85 h 0.875 V 17 L 8.9642956,12.8 H 7.7976291 L 8.9642956,10 Z"
     id="path5197"
     style="fill:#ffffff;fill-opacity:1;stroke:#0c0c0c;stroke-width:0.03779528;stroke-miterlimit:4;stroke-dasharray:none;stroke-opacity:1" />
</svg>
